<svg width="166" height="165" viewBox="0 0 166 165" fill="none" xmlns="http://www.w3.org/2000/svg">
<path d="M147.556 115.5C147.556 129.69 141.746 142.725 132.247 152.625C136.028 155.842 138.333 160.133 138.333 165H27.6667C27.6667 160.133 29.9722 155.842 33.7533 152.625C23.8533 142.285 18.4222 129.114 18.4444 115.5H0C0 105.188 5.25667 96.03 13.4644 90.0075L13.5567 89.8425C20.7608 85.2704 26.6377 79.2229 30.6967 72.2048C34.7556 65.1867 36.8788 57.4018 36.8889 49.5V41.25C36.8889 30.3098 41.747 19.8177 50.3945 12.0818C59.042 4.34597 70.7706 0 83 0C95.2294 0 106.958 4.34597 115.605 12.0818C124.253 19.8177 129.111 30.3098 129.111 41.25V49.5C129.111 66 138.333 80.9325 152.443 89.8425L152.536 90.0075C160.743 96.03 166 105.188 166 115.5H147.556V115.5ZM119.889 115.5C119.889 106.748 116.002 98.3542 109.084 92.1655C102.166 85.9768 92.7835 82.5 83 82.5C73.2165 82.5 63.8336 85.9768 56.9156 92.1655C49.9976 98.3542 46.1111 106.748 46.1111 115.5C46.1111 124.252 49.9976 132.646 56.9156 138.835C63.8336 145.023 73.2165 148.5 83 148.5C92.7835 148.5 102.166 145.023 109.084 138.835C116.002 132.646 119.889 124.252 119.889 115.5ZM64.5556 57.75L83 70.125L101.444 57.75L83 45.375L64.5556 57.75V57.75ZM64.5556 24.75C62.1097 24.75 59.764 25.6192 58.0345 27.1664C56.305 28.7135 55.3333 30.812 55.3333 33C55.3333 35.188 56.305 37.2865 58.0345 38.8336C59.764 40.3808 62.1097 41.25 64.5556 41.25C67.0014 41.25 69.3471 40.3808 71.0767 38.8336C72.8062 37.2865 73.7778 35.188 73.7778 33C73.7778 30.812 72.8062 28.7135 71.0767 27.1664C69.3471 25.6192 67.0014 24.75 64.5556 24.75ZM101.444 24.75C98.9986 24.75 96.6529 25.6192 94.9234 27.1664C93.1938 28.7135 92.2222 30.812 92.2222 33C92.2222 35.188 93.1938 37.2865 94.9234 38.8336C96.6529 40.3808 98.9986 41.25 101.444 41.25C103.89 41.25 106.236 40.3808 107.966 38.8336C109.695 37.2865 110.667 35.188 110.667 33C110.667 30.812 109.695 28.7135 107.966 27.1664C106.236 25.6192 103.89 24.75 101.444 24.75Z" fill="#242424"/>
</svg>
