<svg width="184" height="224" viewBox="0 0 184 224" fill="none" xmlns="http://www.w3.org/2000/svg">
<path d="M92 0L0 40.7273V101.818C0 158.327 39.2533 211.171 92 224C144.747 211.171 184 158.327 184 101.818V40.7273L92 0ZM92 39.7091C98.0653 39.7091 103.994 41.5005 109.037 44.8569C114.081 48.2133 118.011 52.9839 120.332 58.5653C122.653 64.1468 123.261 70.2884 122.077 76.2137C120.894 82.1389 117.973 87.5816 113.685 91.8534C109.396 96.1253 103.932 99.0345 97.9828 100.213C92.034 101.392 85.868 100.787 80.2644 98.4749C74.6608 96.1629 69.8713 92.2479 66.5016 87.2247C63.1319 82.2015 61.3333 76.2959 61.3333 70.2545C61.3333 62.1534 64.5643 54.384 70.3154 48.6556C76.0665 42.9273 83.8667 39.7091 92 39.7091V39.7091ZM92 120.145C112.444 120.145 153.333 131.244 153.333 151.505C146.62 161.587 137.506 169.856 126.804 175.577C116.102 181.298 104.145 184.291 92 184.291C79.8545 184.291 67.8978 181.298 57.1961 175.577C46.4944 169.856 37.3803 161.587 30.6667 151.505C30.6667 131.244 71.5556 120.145 92 120.145Z" fill="#242424"/>
</svg>
